<svg width="3223" height="728" viewBox="0 0 3223 728" fill="none" xmlns="http://www.w3.org/2000/svg">
<g clip-path="url(#clip0_556_2)">
<path d="M0 8.03223H577.717V130.645H362.358V711.453H215.358V130.645H0V8.03223Z" fill="#0B235E"/>
<path d="M796.972 394.429C796.63 331.575 752.663 286.242 689.126 286.242C624.209 286.242 578.522 334.325 575.438 394.429H796.972ZM430.834 450.079C430.834 287.271 531.476 177.017 686.717 177.017C826.167 177.017 934.705 265.629 934.705 444.921V485.108H575.438V485.45C575.438 564.108 621.801 612.533 694.959 612.533C743.738 612.533 781.517 591.583 796.288 551.396L931.359 552.696C910.751 650.579 823.076 721.758 692.563 721.758C530.096 721.758 430.834 617.342 430.834 450.079Z" fill="#0B235E"/>
<path d="M1785.51 448.699C1785.51 356.649 1747.73 288.649 1675.26 288.649C1601.42 288.649 1563.64 356.649 1563.64 448.699C1563.64 540.749 1601.42 608.416 1675.26 608.416C1747.73 608.416 1785.51 540.749 1785.51 448.699ZM1414.91 449.736C1414.91 286.241 1514.52 177.016 1674.58 177.016C1834.63 177.016 1934.24 286.241 1934.24 449.736C1934.24 612.195 1834.63 721.762 1674.58 721.762C1514.52 721.762 1414.91 612.195 1414.91 449.736Z" fill="#0B235E"/>
<path d="M1350.56 719.401H1224.01C1102.55 719.401 1003.72 620.58 1003.72 499.109V4.37988H1140.36V499.109C1140.36 545.234 1177.89 582.759 1224.01 582.759H1350.56V719.401Z" fill="#B3CEFF"/>
<path d="M1213.57 179.829H1350.22V513.8H1213.57V179.829Z" fill="#B3CEFF"/>
<path d="M1356.97 73.7359C1356.97 114.461 1323.36 147.478 1281.89 147.478C1240.43 147.478 1206.82 114.461 1206.82 73.7359C1206.82 33.015 1240.43 -0.00164076 1281.89 -0.00164076C1323.36 -0.00164076 1356.97 33.015 1356.97 73.7359Z" fill="#B3CEFF"/>
<path d="M2128.55 721.48V315.271H2155.83V696.622H2383.18V721.48H2128.55Z" fill="#B3CEFF"/>
<path d="M2492.93 703.898C2551.14 703.898 2605.1 668.736 2605.1 591.131V575.365L2497.78 589.919C2443.22 596.586 2418.36 610.531 2418.36 648.727C2418.36 685.711 2444.43 703.898 2492.93 703.898ZM2391.68 650.544C2391.68 596.586 2434.13 575.365 2499.61 567.486L2605.1 553.54V531.715C2605.1 469.873 2577.21 441.986 2517.79 441.986C2461.41 441.986 2428.06 468.052 2428.06 525.652V530.502H2401.38V526.256C2401.38 468.052 2445.64 417.731 2519.01 417.731C2596.61 417.731 2630.56 468.661 2630.56 531.106V721.481H2606.91V656.606L2603.88 656.002C2585.7 696.015 2545.08 727.544 2487.48 727.544C2432.31 727.544 2391.68 700.261 2391.68 650.544Z" fill="#B3CEFF"/>
<path d="M2820.33 703.291C2876.71 703.291 2925.21 677.221 2925.21 572.333C2925.21 468.054 2876.11 441.983 2819.72 441.983C2759.7 441.983 2714.23 477.754 2714.23 547.475V597.191C2714.23 667.521 2759.7 703.291 2820.33 703.291ZM2687.55 721.479V315.271H2714.23V489.275C2728.17 449.866 2767.58 417.733 2823.96 417.733C2905.21 417.733 2951.89 478.362 2951.89 572.333C2951.89 666.916 2905.21 727.541 2822.75 727.541C2765.16 727.541 2725.75 696.016 2713.01 653.575H2710.59V721.479H2687.55Z" fill="#B3CEFF"/>
<path d="M2994.94 627.506V626.294H3021.62V630.54C3021.62 677.827 3043.45 703.898 3116.81 703.898C3175.01 703.898 3196.23 683.286 3196.23 646.906C3196.23 611.744 3173.8 597.798 3127.12 589.311L3075.58 579.611C3031.32 571.727 2994.34 550.511 2994.34 500.794C2994.34 451.686 3037.39 417.731 3102.86 417.731C3170.16 417.731 3217.45 452.898 3217.45 516.556V518.981H3190.77V514.74C3190.77 474.723 3170.77 441.377 3102.86 441.377C3045.87 441.377 3021.02 463.811 3021.02 499.581C3021.02 534.744 3040.42 548.081 3085.89 557.177L3136.82 566.877C3185.92 576.577 3222.3 597.194 3222.3 645.09C3222.3 696.015 3180.47 727.544 3116.2 727.544C3039.81 727.544 2994.94 692.377 2994.94 627.506Z" fill="#B3CEFF"/>
</g>
<defs>
<clipPath id="clip0_556_2">
<rect width="3223" height="728" fill="white"/>
</clipPath>
</defs>
</svg>
